<?xml version="1.0" encoding="UTF-8"?>
<svg id="Layer_1" data-name="Layer 1" xmlns="http://www.w3.org/2000/svg" viewBox="0 0 351.55 114.2">
  <defs>
    <style>
      .cls-1 {
        fill: #50256a;
        stroke: #50256a;
        stroke-miterlimit: 10;
        stroke-width: .5px;
      }
    </style>
  </defs>
  <g>
    <path class="cls-1" d="M181.22,53.01c.26,0,.48.08.68.24.19.16.7.35,1.52.57,1.34.07,2.8,0,4.37-.22,1.58-.22,3.34-.55,5.28-.98,3.84-.95,7.06-2.09,9.65-3.43,4.53-2.32,6.8-5.39,6.8-9.2s-1.88-6.81-5.64-9.53c-2.94-2.21-7.12-3.98-12.57-5.28-5.31-1.31-10.92-1.96-16.84-1.96-2.72,0-5.31.15-7.77.44-2.46.29-4.82.71-7.06,1.25-4.23,1.09-6.35,3.05-6.35,5.88,0,1.05.3,2.14.91,3.27.34.58.67,1.16.97,1.74,0,.04-.07.05-.2.05s-.37-.15-.71-.44c-1.29-1.2-1.94-2.69-1.94-4.47,0-3.27,2.33-5.54,7-6.81,4.58-1.23,9.78-1.85,15.61-1.85s11.68.62,17.04,1.85c5.57,1.27,9.93,2.94,13.08,5.01,4.62,3.01,6.93,6.43,6.93,10.24,0,4.32-2.89,7.84-8.68,10.57-2.25,1.09-5.14,2.09-8.68,3-1.99.51-3.89.91-5.7,1.2-1.81.29-3.58.47-5.31.54-.3,0-.41.24-.32.71.35,1.71,1.25,4.01,2.72,6.92,1.6,3.12,3.09,5.26,4.47,6.43,1.47,1.23,2.85,1.85,4.15,1.85.56,0,1.12-.09,1.68-.27.17-.04.31-.06.42-.08.11-.02.2-.03.29-.03.17.07.24.13.19.16-.04.15-.22.27-.52.38-.82.4-1.71.6-2.65.6-1.38,0-3-.6-4.86-1.8-1.25-.84-3.11-3.29-5.57-7.35-2.46-4.07-3.69-6.75-3.69-8.06,0-.76.43-1.14,1.29-1.14ZM185.4,42.33c-1.97,2.43-3.9,4.88-5.8,7.35-3.07,3.92-5.3,7.08-6.7,9.48-1.4,2.4-2.04,4.07-1.91,5.01.04.36-.35.54-1.17.54-.78,0-1.23-.22-1.36-.65-.65-1.74,6.28-11.22,20.79-28.43.47-.4.58-.84.32-1.31-.09-.15-.13-.24-.13-.27,0-.33.17-.49.52-.49.22,0,.43.09.65.27.65.58.86.96.65,1.14-1.94,2.47-3.9,4.92-5.86,7.35Z"/>
    <path class="cls-1" d="M201.95,66.82c-.35-.09-.66-.23-.94-.41-.28-.18-.52-.4-.71-.65s-.29-.53-.29-.82c.08-3.01,2.98-7.46,8.68-13.34.17-.25.13-.42-.13-.49-.39-.18-.78-.39-1.17-.63-.39-.24-.58-.46-.58-.68,0-.11.07-.25.19-.44.13-.18.69-.29,1.68-.33,1.6-.04,2.42-.05,2.46-.05.17,0,.41-.07.71-.22.95-.76,1.9-1.16,2.85-1.2.69-.04,1.66.29,2.92.98.08.04.16.07.23.11.07.04.14.07.23.11.99.04,2.19.07,3.59.11,1.4.04,3.01.07,4.82.11.65.07.97.15.97.22,0,.22-.32.33-.97.33-1.34,0-2.2.22-2.59.65-.09.11-.09.22,0,.33.04.11.09.22.13.33.04.11.07.2.07.27-.13,1.38-.83,2.86-2.11,4.44s-3.21,3.3-5.8,5.15c-5.05,3.67-9.48,5.74-13.28,6.21-.3.04-.63,0-.97-.08ZM201.63,65.21c0,.87.69,1.2,2.07.98,2.93-.4,6.45-2.18,10.56-5.34,4.32-3.23,6.8-6.17,7.45-8.82.3-1.09-.52-1.73-2.46-1.91-1.04-.11-2.01-.12-2.92-.03s-1.75.26-2.53.52c-.09-.04-.45.13-1.1.49-4.62,3.6-8.18,7.9-10.69,12.91-.26.4-.39.8-.39,1.2Z"/>
    <path class="cls-1" d="M239.52,59.33c.35-1.23.62-2.27.81-3.1s.33-1.51.42-2.02c-2.12,1.56-4.75,3.23-7.9,5.01-4.15,2.36-7.45,3.94-9.91,4.74-.26.07-.45.11-.58.11-.39,0-.71-.13-.97-.38-.26-.25-.35-.51-.26-.76.26-.73,2.22-3.89,5.89-9.48.09-.14.1-.45.03-.93-.06-.47-.03-.82.1-1.04.17-.25.99-.65,2.46-1.2,1.55-.58,2.5-.89,2.85-.93.6-.04.95.26,1.04.87-.91.33-2.42,1.74-4.53,4.25-1.77,2.18-3.07,3.96-3.89,5.34-.13.29-.19.53-.19.71,0,.36.17.6.52.71.43.11.82.11,1.17,0,.99-.33,2.19-.82,3.59-1.5,1.4-.67,3.01-1.53,4.83-2.59,1.42-.84,2.64-1.58,3.66-2.23,1.01-.65,1.82-1.22,2.43-1.69.22-.33.46-.61.75-.85s.57-.37.87-.41c.73-.04,1.28.11,1.65.44.36.33.51.67.42,1.03-.17.18-.34.37-.48.57-.15.2-.34.46-.55.79-.86,2.62-2.22,6.26-4.08,10.95,6.56-1.02,12.85-1.52,18.85-1.52,2.11,0,3.76.11,4.92.33.47.07.96.24,1.46.49.5.25.95.56,1.36.93.41.36.74.76,1,1.2s.39.89.39,1.36-.13.87-.39,1.2c-.56.91-1.97,2.1-4.21,3.59-.35.29-.65.44-.91.44-.09,0-.13-.02-.13-.05,0-.22.22-.45.65-.71,2.55-2.03,3.82-3.83,3.82-5.39,0-1.31-1.06-2.03-3.18-2.18-.61-.04-1.31-.06-2.1-.08-.8-.02-1.7-.03-2.69-.03-7.82,0-14.21.44-19.17,1.31-12.74,30.54-28.18,46.3-46.31,47.28-6.22.33-11.92-1.25-17.1-4.74-5.22-3.45-7.84-7.32-7.84-11.6,0-1.42.32-2.78.97-4.09,3.33-6.5,13.69-12.64,31.09-18.41,6-1.96,12.08-3.7,18.23-5.23,6.15-1.52,12.47-2.81,18.95-3.87.69-1.6,1.42-3.81,2.2-6.65ZM170.05,96.67c-.15.56-.23,1.15-.23,1.77,0,3.81,2.29,7.21,6.87,10.19,4.79,3.09,10.19,4.52,16.19,4.3,10.36-.33,20.3-6.88,29.79-19.66,2.89-3.96,5.54-8.13,7.93-12.5,2.4-4.38,4.54-9,6.45-13.86-15.55,2.69-29.21,6.3-41,10.84-14.08,5.45-22.54,11.18-25.39,17.21-.26.58-.46,1.15-.62,1.72Z"/>
    <path class="cls-1" d="M247.87,65.7c-1.08,0-1.62-.63-1.62-1.91,0-2.58,2.4-5.88,7.19-9.91,2.2-1.85,4.27-3.35,6.22-4.49s3.76-2.01,5.44-2.59c.39-.11.81-.21,1.26-.3s.92-.14,1.39-.14c.52,0,1.04.05,1.55.14.52.09,1.04.21,1.56.35.73.07,1.14.09,1.23.05.78-.11,1.34-.34,1.68-.71.09-.07.22-.11.39-.11s.32.09.45.27c.13.18.17.31.13.38-1.25,1.63-2.49,3.24-3.73,4.82-1.23,1.58-2.43,3.19-3.59,4.82-.91,1.27-1.79,2.73-2.65,4.38-.86,1.65-1.65,3.32-2.36,5.01-.71,1.69-1.33,3.3-1.85,4.82-.52,1.52-.86,2.81-1.04,3.87-.04.18-.07.35-.07.49v.54c0,1.23.45,2.15,1.36,2.75.91.6,2.14.9,3.69.9s3.09-.22,4.6-.65c2.29-.65,5.27-2.22,8.94-4.69,1.77-1.2,3.36-2.43,4.76-3.7,1.4-1.27,2.63-2.47,3.66-3.6.39-.36.65-.54.78-.54.04.04.07.09.07.16,0,.15-.09.35-.26.6-1,1.23-2.19,2.54-3.59,3.92-1.4,1.38-3.08,2.76-5.02,4.14-1.81,1.23-3.45,2.25-4.89,3.05-1.45.8-2.78,1.38-3.99,1.74-.61.18-1.21.32-1.81.41s-1.25.14-1.94.14c-1.04,0-1.99-.14-2.85-.41-.86-.27-1.64-.61-2.33-1.01-.82-.4-1.39-.97-1.72-1.71-.32-.74-.47-1.59-.42-2.53.04-.76.23-1.78.55-3.05.32-1.27.75-2.62,1.26-4.06.52-1.43,1.08-2.86,1.68-4.27.61-1.42,1.21-2.67,1.81-3.76.73-1.31,1.46-2.52,2.17-3.65.71-1.13,1.44-2.16,2.17-3.1.3-.4.28-.6-.06-.6-.04,0-.11.04-.19.11-1.04,1.05-2.28,2.16-3.73,3.32-1.45,1.16-3.12,2.43-5.02,3.81-3.8,2.69-7.06,4.7-9.78,6.05-.56.29-1.06.43-1.49.43ZM250.14,61.89c0,.87.39,1.31,1.17,1.31.3,0,.63-.09.97-.27,2.42-1.27,4.97-2.99,7.64-5.15,2.68-2.16,5.55-4.78,8.62-7.87.13-.11.19-.24.19-.38,0-.4-.28-.77-.84-1.12-.56-.35-1.28-.52-2.14-.52-.48,0-.97.05-1.49.16-2.03.44-4.6,2.09-7.71,4.96-1.47,1.38-2.71,2.71-3.73,3.98-1.01,1.27-1.82,2.49-2.43,3.65-.17.4-.26.82-.26,1.25Z"/>
    <path class="cls-1" d="M274.1,53.85c.61-2.05,1.45-4.13,2.53-6.24v-.16C292.61,16.99,309.75,1.26,328.06.28c6.3-.29,11.83,1.29,16.58,4.74,4.84,3.41,7.04,7.3,6.61,11.66-.22,1.42-.69,2.76-1.43,4.03-4.1,6.57-15.13,12.71-33.1,18.41-6.18,2-12.43,3.74-18.75,5.23-6.33,1.49-12.77,2.76-19.33,3.81-.74,1.71-1.35,3.49-1.85,5.36-.5,1.87-.77,3.55-.81,5.04-.09,1.71.2,2.94.88,3.7.67.76,1.51,1.2,2.53,1.31,1.01.11,2.11-.04,3.3-.46,1.19-.42,2.3-.95,3.34-1.61.56-.36,1.07-.74,1.52-1.12s.92-.79,1.39-1.23c.35-.29.59-.41.75-.35.15.05.05.28-.29.68-.35.36-.79.78-1.33,1.25-.54.47-1.05.89-1.52,1.25-1.51,1.13-3.04,1.96-4.6,2.51-1.55.54-2.96.74-4.21.6-1.25-.14-2.29-.64-3.11-1.5-.82-.85-1.25-2.13-1.29-3.84-.09-1.89.17-3.86.78-5.91ZM349.18,17.52c.17-.56.3-1.15.39-1.77.47-3.85-1.45-7.24-5.76-10.19-4.32-3.05-9.56-4.48-15.74-4.3-10.45.4-21.05,6.97-31.8,19.72-3.28,3.81-6.31,7.82-9.07,12.01-2.76,4.19-5.33,8.62-7.71,13.26h.07c-.09.18-.17.36-.26.55-.09.18-.19.36-.32.54,7.9-1.38,15.35-2.96,22.35-4.74,7-1.78,13.58-3.81,19.75-6.1,14.68-5.41,23.82-11.16,27.4-17.27.3-.58.54-1.15.71-1.72Z"/>
  </g>
  <g>
    <path class="cls-1" d="M6.47,62.67c-4.15-2.39-6.22-5.52-6.22-9.37,0-4.57,2.79-9.6,8.36-15.1,4.83-4.78,10.88-9.08,18.13-12.9,6.87-3.61,12.61-5.68,17.23-6.23,1.17-.12,2.33-.19,3.5-.19,3.28,0,5.63.63,7.06,1.89l.84-.82c.04-.21.2-.27.45-.19.22.04.32.19.32.44,0,.13-.28.53-.84,1.2.6.71.91,1.91.91,3.59s-.28,3.18-.84,4.62c-.56,1.45-1.62,3.01-3.17,4.69-1.77,2.1-3.89,3.82-6.35,5.16-.13.04-.5.04-1.1,0-.69-.13-1.04-.27-1.04-.44,0-2.35,1.23-5.41,3.69-9.19,1.86-2.93,3.71-5.37,5.57-7.3-.78-1.68-2.92-2.52-6.41-2.52-.47,0-.98.02-1.52.06-.54.04-1.11.1-1.72.19-7.3,1.34-15.22,5.1-23.77,11.26-9.02,6.63-14.53,13.11-16.52,19.44-.3,1.01-.45,2.04-.45,3.08,0,3.1,1.36,5.62,4.08,7.55,3.19,2.22,7.64,3.27,13.34,3.15,3.28-.08,6.62-.49,10.01-1.23,3.39-.73,6.83-1.77,10.33-3.11,3.24-1.3,6.15-2.69,8.75-4.18,2.59-1.49,4.9-3.13,6.93-4.94.26-.29.5-.44.71-.44.17,0,.26.1.26.32,0,.17-.15.4-.45.69-3.93,3.9-9.28,7.24-16.06,10-3.63,1.47-7.15,2.57-10.56,3.3-3.41.73-6.73,1.06-9.97.97-5.27-.08-9.76-1.24-13.47-3.46ZM45.52,38.33c.17.12.37.12.58,0,3.24-2.06,5.59-4.74,7.06-8.05.26-.67.46-1.32.62-1.95.15-.63.23-1.28.23-1.95,0-1.17-.22-2.12-.65-2.83-.82.84-1.64,1.8-2.46,2.9-.82,1.09-1.62,2.37-2.4,3.84-1.51,2.81-2.55,5.31-3.11,7.49-.04.29,0,.48.13.57Z"/>
    <path class="cls-1" d="M46.56,66.7c-.09-.21-.07-.42.07-.63,4.19-6.29,7.04-11.13,8.55-14.53.26-.63.39-1.15.39-1.57,0-.08-.07-.32-.19-.69-.04-.17-.04-.32,0-.44.52-.17,2.14-1.05,4.86-2.64.04-.08.13-.13.26-.13.26,0,.43.11.52.32.17.25.15.48-.07.69-1.38,1.85-2.56,3.45-3.53,4.81-.97,1.36-1.7,2.51-2.17,3.43-.13.25-.19.46-.19.63,0,.21.24.23.71.06.39-.17.65-.34.78-.5,1.68-1.97,3.86-4,6.54-6.1,2.76-2.18,4.92-3.59,6.48-4.21,1.34-.04,2.33.08,2.98.38.04.04.06.09.06.13,0,.12-.08.31-.23.53-.15.23-.32.44-.52.63s-.4.34-.62.44c-.22.11-.39.12-.52.03-.86-.38-2.03-.19-3.5.57-6.39,3.44-12.09,9.14-17.1,17.11,0,.12-.17.27-.52.44-.35.12-.74.28-1.17.47-.43.19-.93.45-1.49.79-.22.25-.34.25-.39,0Z"/>
    <path class="cls-1" d="M68.45,66.86c-.35-.1-.66-.26-.94-.47-.28-.21-.52-.46-.71-.76s-.29-.61-.29-.94c.08-3.48,2.98-8.62,8.68-15.41.17-.29.13-.48-.13-.57-.39-.21-.78-.45-1.17-.72-.39-.27-.58-.53-.58-.79,0-.12.07-.29.19-.5.13-.21.69-.33,1.68-.38,1.6-.04,2.42-.06,2.46-.06.17,0,.41-.08.71-.25.95-.88,1.9-1.34,2.85-1.38.69-.04,1.66.34,2.92,1.13.08.04.16.08.23.12.07.04.14.08.23.12.99.04,2.19.09,3.59.13,1.4.04,3.01.08,4.82.12.65.09.97.17.97.25,0,.25-.32.38-.97.38-1.34,0-2.2.25-2.59.75-.09.13-.09.25,0,.38.04.12.09.25.13.38.04.12.07.23.07.31-.13,1.6-.83,3.3-2.11,5.13s-3.21,3.81-5.8,5.95c-5.05,4.24-9.48,6.63-13.28,7.17-.3.04-.63.01-.97-.09ZM68.13,65c0,1.01.69,1.38,2.07,1.13,2.93-.46,6.45-2.52,10.56-6.17,4.32-3.73,6.8-7.13,7.45-10.19.3-1.26-.52-1.99-2.46-2.2-1.04-.12-2.01-.14-2.92-.03-.91.1-1.75.31-2.53.6-.09-.04-.45.15-1.1.57-4.62,4.15-8.18,9.12-10.69,14.91-.26.46-.39.92-.39,1.38Z"/>
    <path class="cls-1" d="M122.09,49.78c0,.12-.11.23-.32.31-.35.09-.69.17-1.04.25s-.71.13-1.1.13c-.69,3.73-2.68,7.19-5.96,10.38-3.15,3.06-6.54,4.76-10.17,5.1-.43.04-.95-.18-1.55-.66-.61-.48-1.08-1.16-1.43-2.04-.09-.25-.13-.61-.13-1.07,0-3.48.54-6.77,1.62-9.88.13-.25.09-.42-.13-.5-.22-.13-.43-.04-.65.25-2.12,2.81-4.05,5.2-5.8,7.17-1.75,1.97-3.34,3.52-4.76,4.65-1.42,1.18-2.59,1.7-3.5,1.57-.26,0-.61-.21-1.07-.63s-.66-.78-.62-1.07c.17-.96.69-2.22,1.55-3.78.86-1.55,2.05-3.44,3.56-5.66,1.51-2.18,2.67-3.91,3.46-5.19.8-1.28,1.24-2.11,1.33-2.48.04-.29.32-.44.84-.44.65,0,.97.25.97.75,0,.21-.07.44-.19.69-.09.21-.51.89-1.26,2.05-.76,1.15-1.83,2.8-3.21,4.94-1.04,1.55-1.88,2.94-2.53,4.15-.65,1.22-1.12,2.24-1.43,3.08-.09.25-.13.46-.13.63,0,.59.24.88.71.88.3,0,.54-.08.71-.25.95-.67,2.06-1.64,3.34-2.92,1.27-1.28,2.73-2.86,4.37-4.75,2.76-3.27,4.69-5.72,5.76-7.36.22-.46.48-.94.78-1.45.3-.5.67-1.09,1.1-1.76.17-.17.47-.28.91-.35.43-.06.82-.1,1.17-.1.35.04.5.17.45.38-.47.71-.92,1.6-1.33,2.67-.41,1.07-.85,2.34-1.33,3.81-.48,1.72-.85,3.3-1.13,4.75-.28,1.45-.42,2.82-.42,4.12v.88c0,.25.02.5.06.75.17,2.06,1.1,2.92,2.79,2.58,2.37-.59,4.71-2.31,7-5.16,2.29-2.89,3.52-5.93,3.69-9.12-.56-.12-1.03-.41-1.39-.85-.37-.44-.51-.77-.42-.98.04-.29.26-.59.65-.88.39-.29.78-.44,1.17-.44.73,0,1.45.78,2.14,2.33.47.17,1.32.25,2.53.25.22,0,.32.08.32.25Z"/>
    <path class="cls-1" d="M116.71,64.12c-.17-.17-.13-.5.13-1.01.99-2.05,2.68-4.84,5.05-8.37,1.12-1.68,2.18-3.18,3.17-4.5s1.92-2.48,2.79-3.49c.13-.21.31-.38.55-.5.24-.12.59-.23,1.07-.31.26-.04.41-.04.45,0,0,.17-.07.31-.19.44-1.64,1.85-3.06,3.68-4.24,5.5-1.19,1.82-2.21,3.68-3.08,5.57-.17.21-.26.48-.26.82,0,.46.17.69.52.69.26,0,.52-.15.78-.44,1.21-1.13,2.47-2.25,3.79-3.37,1.32-1.11,2.67-2.21,4.05-3.3,3.24-2.51,5.42-3.98,6.54-4.4.6-.5,1.14-.84,1.62-1.01.95-.42,1.71-.5,2.27-.25.61.21.58.69-.07,1.45-3.07,3.82-5.83,8.22-8.29,13.21-2.37,4.95-3.65,8.89-3.82,11.83-.17,1.93.24,3.42,1.23,4.47.91.92,2.09,1.38,3.56,1.38.69,0,1.32-.09,1.88-.25,2.46-.67,5.55-2.54,9.26-5.6,4.1-3.4,6.15-6.13,6.15-8.18,0-.42-.1-.72-.29-.91s-.42-.32-.68-.38c-.26-.06-.5-.09-.71-.09-.17,0-.26-.06-.26-.19,0-.25.18-.46.55-.63.36-.17.7-.25,1-.25.73,0,1.1.48,1.1,1.45,0,.46-.13,1.07-.39,1.82-.39,1.21-1.08,2.49-2.07,3.84-1,1.34-2.25,2.75-3.76,4.22-4.15,3.98-8.64,6.23-13.47,6.73-1.73.17-3.15-.29-4.27-1.38-1.21-1.26-1.71-3.23-1.49-5.91.26-3.02,1.62-6.82,4.08-11.39.99-1.93,2.04-3.78,3.14-5.57,1.1-1.78,2.28-3.51,3.53-5.19.13-.17.19-.38.19-.63,0-.67-.39-1.01-1.17-1.01-.35,0-.69.1-1.04.32-2.46,1.68-4.91,3.65-7.35,5.91-2.44,2.27-4.93,4.85-7.48,7.74-.43.54-1.53,1.01-3.3,1.38-.48.08-.74,0-.78-.25Z"/>
  </g>
</svg>