<svg xmlns="http://www.w3.org/2000/svg" xmlns:xlink="http://www.w3.org/1999/xlink" width="50" zoomAndPan="magnify" viewBox="0 0 37.5 37.499999" height="50" preserveAspectRatio="xMidYMid meet" version="1.0"><defs><clipPath id="341d7fa006"><path d="M 0 0 L 37 0 L 37 37.007812 L 0 37.007812 Z M 0 0 " clip-rule="nonzero"/></clipPath></defs><g clip-path="url(#341d7fa006)"><path fill="#000000" d="M 28.023438 37.007812 L 9.078125 37.007812 C 4.074219 37.007812 0.0507812 32.980469 0.0507812 27.976562 L 0.0507812 9.03125 C 0.0507812 4.023438 4.074219 0 9.078125 0 L 27.925781 0 C 32.933594 0 36.957031 4.023438 36.957031 9.03125 L 36.957031 27.878906 C 36.957031 32.882812 32.933594 36.910156 27.925781 36.910156 Z M 9.078125 2.945312 C 5.742188 2.945312 2.992188 5.691406 2.992188 9.03125 L 2.992188 27.878906 C 2.992188 31.214844 5.742188 33.964844 9.078125 33.964844 L 27.925781 33.964844 C 31.265625 33.964844 34.011719 31.214844 34.011719 27.878906 L 34.011719 9.03125 C 34.011719 5.691406 31.265625 2.945312 27.925781 2.945312 Z M 9.078125 2.945312 " fill-opacity="1" fill-rule="nonzero"/></g><path fill="#000000" d="M 18.601562 30.429688 C 12.121094 30.429688 6.921875 25.226562 6.921875 18.75 C 6.921875 12.269531 12.121094 7.066406 18.601562 7.066406 C 25.078125 7.066406 30.28125 12.269531 30.28125 18.75 C 30.28125 25.226562 25.078125 30.429688 18.601562 30.429688 Z M 18.601562 9.914062 C 13.695312 9.914062 9.765625 13.839844 9.765625 18.75 C 9.765625 23.65625 13.695312 27.582031 18.601562 27.582031 C 23.507812 27.582031 27.4375 23.65625 27.4375 18.75 C 27.4375 13.839844 23.507812 9.914062 18.601562 9.914062 Z M 18.601562 9.914062 " fill-opacity="1" fill-rule="nonzero"/><path fill="#000000" d="M 18.601562 24.050781 C 15.65625 24.050781 13.300781 21.695312 13.300781 18.75 C 13.300781 15.804688 15.65625 13.449219 18.601562 13.449219 C 21.546875 13.449219 23.902344 15.804688 23.902344 18.75 C 23.902344 21.695312 21.546875 24.050781 18.601562 24.050781 Z M 18.601562 16.394531 C 17.324219 16.394531 16.246094 17.472656 16.246094 18.75 C 16.246094 20.023438 17.324219 21.105469 18.601562 21.105469 C 19.878906 21.105469 20.957031 20.023438 20.957031 18.75 C 20.957031 17.472656 19.878906 16.394531 18.601562 16.394531 Z M 18.601562 16.394531 " fill-opacity="1" fill-rule="nonzero"/><path fill="#000000" d="M 31.265625 7.753906 C 31.265625 8.015625 31.214844 8.265625 31.113281 8.507812 C 31.015625 8.746094 30.875 8.957031 30.6875 9.144531 C 30.503906 9.328125 30.292969 9.46875 30.050781 9.570312 C 29.8125 9.667969 29.5625 9.71875 29.300781 9.71875 C 29.039062 9.71875 28.789062 9.667969 28.550781 9.570312 C 28.308594 9.46875 28.097656 9.328125 27.914062 9.144531 C 27.730469 8.957031 27.585938 8.746094 27.488281 8.507812 C 27.386719 8.265625 27.335938 8.015625 27.335938 7.753906 C 27.335938 7.496094 27.386719 7.242188 27.488281 7.003906 C 27.585938 6.761719 27.730469 6.550781 27.914062 6.367188 C 28.097656 6.183594 28.308594 6.039062 28.550781 5.941406 C 28.789062 5.839844 29.039062 5.792969 29.300781 5.792969 C 29.5625 5.792969 29.8125 5.839844 30.050781 5.941406 C 30.292969 6.039062 30.503906 6.183594 30.6875 6.367188 C 30.875 6.550781 31.015625 6.761719 31.113281 7.003906 C 31.214844 7.242188 31.265625 7.496094 31.265625 7.753906 Z M 31.265625 7.753906 " fill-opacity="1" fill-rule="nonzero"/></svg>