<svg xmlns="http://www.w3.org/2000/svg" xmlns:xlink="http://www.w3.org/1999/xlink" width="50" zoomAndPan="magnify" viewBox="0 0 37.5 37.499999" height="50" preserveAspectRatio="xMidYMid meet" version="1.0"><defs><clipPath id="5352d0e25a"><path d="M 0.277344 22 L 36.542969 22 L 36.542969 37 L 0.277344 37 Z M 0.277344 22 " clip-rule="nonzero"/></clipPath><clipPath id="b3371b076e"><path d="M 0.277344 0 L 36.542969 0 L 36.542969 37 L 0.277344 37 Z M 0.277344 0 " clip-rule="nonzero"/></clipPath></defs><path fill="#f26869" d="M 27.148438 3.558594 L 24.914062 5.804688 L 18.382812 12.429688 L 11.792969 5.804688 L 9.558594 3.558594 L 4.6875 3.558594 L 4.6875 17.957031 L 9.617188 21.929688 L 9.617188 10.414062 L 18.382812 18.933594 L 27.148438 10.414062 L 27.148438 21.929688 L 32.074219 17.957031 L 32.074219 3.558594 Z M 27.148438 3.558594 " fill-opacity="1" fill-rule="nonzero"/><g clip-path="url(#5352d0e25a)"><path fill="#d3d6de" d="M 36.085938 36.5 L 0.679688 36.5 L 16.890625 23.484375 C 17.75 22.792969 19.011719 22.792969 19.929688 23.484375 Z M 36.085938 36.5 " fill-opacity="1" fill-rule="nonzero"/></g><g clip-path="url(#b3371b076e)"><path fill="#010101" d="M 36.488281 36.441406 L 36.488281 14.730469 C 36.488281 14.675781 36.488281 14.675781 36.488281 14.617188 C 36.488281 14.5 36.429688 14.445312 36.316406 14.386719 L 32.535156 11.332031 L 32.535156 3.558594 C 32.535156 3.328125 32.363281 3.097656 32.074219 3.097656 C 29.152344 3.097656 25.199219 3.097656 22.277344 3.097656 L 18.609375 0.164062 C 18.4375 0.046875 18.210938 0.046875 18.09375 0.164062 L 14.429688 3.097656 C 11.046875 3.097656 8.125 3.097656 4.6875 3.097656 L 4.632812 3.097656 C 4.402344 3.15625 4.230469 3.328125 4.230469 3.558594 L 4.230469 11.332031 L 4.058594 11.507812 L 0.390625 14.445312 C 0.390625 14.445312 0.335938 14.5 0.335938 14.5 C 0.277344 14.558594 0.277344 14.617188 0.277344 14.675781 C 0.277344 14.675781 0.277344 14.730469 0.277344 14.789062 L 0.277344 36.554688 C 0.277344 36.554688 0.277344 36.613281 0.277344 36.613281 C 0.277344 36.613281 0.277344 36.671875 0.277344 36.671875 C 0.277344 36.730469 0.335938 36.785156 0.335938 36.785156 C 0.335938 36.785156 0.390625 36.84375 0.390625 36.84375 C 0.390625 36.84375 0.449219 36.902344 0.507812 36.902344 C 0.621094 36.960938 0.621094 36.960938 0.679688 36.960938 L 36.085938 36.960938 C 36.144531 36.960938 36.199219 36.960938 36.257812 36.902344 C 36.316406 36.902344 36.316406 36.84375 36.371094 36.84375 C 36.488281 36.785156 36.542969 36.671875 36.542969 36.5 C 36.488281 36.5 36.488281 36.5 36.488281 36.441406 Z M 35.398438 14.730469 L 32.589844 17.035156 L 32.589844 12.484375 L 34.882812 14.328125 Z M 18.382812 1.082031 L 20.960938 3.15625 L 15.804688 3.15625 Z M 22.050781 4.019531 C 22.222656 4.078125 21.417969 4.019531 26.117188 4.019531 L 18.382812 11.851562 L 10.648438 4.019531 Z M 9.386719 4.019531 L 18.09375 12.773438 C 18.265625 12.945312 18.554688 12.945312 18.726562 12.773438 L 27.320312 4.019531 L 31.617188 4.019531 L 31.617188 17.785156 C 31.558594 17.839844 27.320312 21.238281 27.550781 21.007812 L 27.550781 10.414062 C 27.550781 10.238281 27.433594 10.066406 27.261719 10.007812 C 27.207031 10.007812 27.148438 9.953125 27.089844 9.953125 C 26.976562 9.953125 26.863281 10.007812 26.804688 10.066406 L 18.382812 18.300781 L 9.902344 10.125 C 9.789062 10.007812 9.617188 9.953125 9.445312 10.066406 C 9.273438 10.125 9.15625 10.296875 9.15625 10.46875 L 9.15625 21.066406 C 9.101562 21.007812 6.578125 18.992188 6.695312 19.109375 L 5.089844 17.785156 L 5.089844 4.019531 Z M 22.507812 25.097656 L 20.160156 23.195312 C 19.125 22.390625 17.636719 22.390625 16.605469 23.195312 L 14.257812 25.097656 L 10.015625 21.699219 L 10.015625 11.449219 L 18.09375 19.28125 C 18.265625 19.453125 18.554688 19.453125 18.667969 19.28125 L 26.746094 11.449219 L 26.746094 21.699219 Z M 4.230469 12.484375 L 4.230469 17.035156 L 1.421875 14.730469 Z M 13.511719 25.613281 L 1.136719 35.636719 L 1.136719 15.652344 C 1.023438 15.539062 13.28125 25.441406 13.511719 25.613281 Z M 1.9375 36.09375 C 1.996094 36.039062 17.234375 23.828125 17.179688 23.828125 C 17.867188 23.253906 18.953125 23.253906 19.640625 23.828125 C 19.699219 23.886719 22.738281 26.304688 22.566406 26.132812 L 34.882812 36.039062 L 1.9375 36.039062 Z M 23.195312 25.613281 C 23.253906 25.558594 35.742188 15.539062 35.628906 15.59375 L 35.628906 35.578125 Z M 23.195312 25.613281 " fill-opacity="1" fill-rule="nonzero"/></g></svg>