<svg xmlns="http://www.w3.org/2000/svg" xmlns:xlink="http://www.w3.org/1999/xlink" width="50" zoomAndPan="magnify" viewBox="0 0 37.5 37.499999" height="50" preserveAspectRatio="xMidYMid meet" version="1.0"><defs><clipPath id="f1232e913c"><path d="M 0 0 L 37.007812 0 L 37.007812 37 L 0 37 Z M 0 0 " clip-rule="nonzero"/></clipPath></defs><g clip-path="url(#f1232e913c)"><path fill="#000000" d="M 35.96875 24.59375 C 36.632812 22.675781 37.007812 20.648438 37.007812 18.515625 C 37.007812 16.382812 36.632812 14.332031 35.96875 12.4375 C 35.941406 12.382812 35.941406 12.332031 35.914062 12.277344 C 33.355469 5.132812 26.5 0.0117188 18.503906 0.0117188 C 10.503906 0.0117188 3.652344 5.132812 1.09375 12.25 C 1.066406 12.304688 1.039062 12.359375 1.039062 12.410156 C 0.375 14.332031 0 16.382812 0 18.515625 C 0 20.648438 0.375 22.703125 1.039062 24.59375 C 1.066406 24.648438 1.066406 24.703125 1.09375 24.753906 C 3.652344 31.902344 10.503906 36.992188 18.503906 36.992188 C 26.5 36.992188 33.355469 31.875 35.914062 24.753906 C 35.941406 24.703125 35.941406 24.648438 35.96875 24.59375 Z M 18.503906 34.355469 C 17.808594 34.355469 16.664062 33.074219 15.703125 30.222656 C 15.25 28.835938 14.878906 27.261719 14.609375 25.554688 L 22.371094 25.554688 C 22.101562 27.261719 21.730469 28.863281 21.277344 30.222656 C 20.34375 33.074219 19.195312 34.355469 18.503906 34.355469 Z M 14.289062 22.914062 C 14.15625 21.503906 14.105469 20.035156 14.105469 18.515625 C 14.105469 16.996094 14.183594 15.53125 14.289062 14.117188 L 22.6875 14.117188 C 22.824219 15.53125 22.875 16.996094 22.875 18.515625 C 22.875 20.035156 22.796875 21.503906 22.6875 22.914062 Z M 2.640625 18.515625 C 2.640625 16.996094 2.851562 15.503906 3.253906 14.117188 L 11.625 14.117188 C 11.492188 15.558594 11.4375 17.050781 11.4375 18.515625 C 11.4375 19.984375 11.492188 21.476562 11.625 22.914062 L 3.28125 22.914062 C 2.878906 21.503906 2.640625 20.035156 2.640625 18.515625 Z M 18.503906 2.652344 C 19.195312 2.652344 20.34375 3.933594 21.304688 6.785156 C 21.757812 8.171875 22.128906 9.746094 22.394531 11.453125 L 14.609375 11.453125 C 14.878906 9.71875 15.25 8.144531 15.703125 6.785156 C 16.664062 3.933594 17.785156 2.652344 18.503906 2.652344 Z M 25.355469 14.117188 L 33.726562 14.117188 C 34.128906 15.503906 34.339844 16.996094 34.339844 18.515625 C 34.339844 20.035156 34.128906 21.53125 33.726562 22.914062 L 25.355469 22.914062 C 25.488281 21.476562 25.542969 19.984375 25.542969 18.515625 C 25.542969 17.023438 25.488281 15.558594 25.355469 14.117188 Z M 32.6875 11.453125 L 25.0625 11.453125 C 24.582031 8.199219 23.78125 5.292969 22.636719 3.210938 C 27.035156 4.414062 30.6875 7.453125 32.6875 11.453125 Z M 14.34375 3.210938 C 13.199219 5.292969 12.398438 8.199219 11.917969 11.453125 L 4.320312 11.453125 C 6.320312 7.453125 9.945312 4.414062 14.34375 3.210938 Z M 4.320312 25.554688 L 11.945312 25.554688 C 12.425781 28.808594 13.222656 31.714844 14.371094 33.792969 C 9.945312 32.621094 6.320312 29.582031 4.320312 25.554688 Z M 22.636719 33.820312 C 23.78125 31.742188 24.582031 28.835938 25.0625 25.582031 L 32.6875 25.582031 C 30.6875 29.582031 27.035156 32.621094 22.636719 33.820312 Z M 22.636719 33.820312 " fill-opacity="1" fill-rule="nonzero"/></g></svg>