<svg xmlns="http://www.w3.org/2000/svg" xmlns:xlink="http://www.w3.org/1999/xlink" width="300px" height="300px" viewBox="0 0 1200 1200">
    <g id="e9113296-d51a-4b90-baf4-6dc4c024bf12">
<g style="">
		<g id="e9113296-d51a-4b90-baf4-6dc4c024bf12-child-0">
<path style="stroke: rgb(193,193,193); stroke-width: 0; stroke-dasharray: none; stroke-linecap: butt; stroke-dashoffset: 0; stroke-linejoin: miter; stroke-miterlimit: 4; fill: rgb(116,116,116); fill-rule: nonzero; opacity: 1;" transform="matrix(11.625083 0 0 11.832573 599.999986 600.000003) matrix(1 0 0 1 0 0)  translate(-36.13, -26.299834)" d="M 13.11 28.00 L 12.55 28.00 C 9.85 27.96 7.29 26.75 5.55 24.68 C 3.63 22.46 2.60 19.61 2.64 16.68 C 2.60 13.75 3.63 10.90 5.55 8.68 C 7.31 6.60 9.88 5.39 12.60 5.36 C 13.05 5.36 13.50 5.39 13.94 5.46 L 19.28 6.00 C 19.34 5.57 19.49 4.36 19.51 4.08 C 19.53 3.80 19.51 3.38 19.51 3.02 C 19.51 2.14 19.76 1.09 20.75 1.11 C 21.00 1.05 32.45 0.00 33.65 0.00 C 34.56 -0.01 35.42 0.38 36.00 1.08 L 36.25 1.31 C 36.52 1.55 36.81 1.83 37.07 2.11 C 37.49 2.54 37.87 2.96 38.01 3.11 L 38.11 3.11 C 38.78 3.17 42.55 3.20 42.69 3.20 C 43.93 2.99 45.18 2.89 46.43 2.89 C 47.94 2.81 49.44 2.91 50.93 3.16 C 52.17 3.52 53.93 6.16 55.33 8.28 C 55.80 8.98 56.23 9.63 56.60 10.13 C 56.97 10.63 57.24 10.99 57.53 11.36 C 58.55 12.49 59.31 13.82 59.77 15.27 C 59.99 16.13 60.51 17.63 61.08 19.27 C 61.77 21.27 62.54 23.48 62.96 25.07 L 65.74 35.65 C 66.48 35.83 67.20 36.06 67.91 36.34 C 68.47 36.65 72.25 52.34 72.26 52.34 L 72.26 52.54 L 55.77 52.54 L 55.77 52.40 C 55.77 52.40 54.87 45.83 54.06 42.40 C 53.25 38.97 53.69 38.79 54.38 38.49 L 55.55 38.00 L 55.25 36.56 C 54.42 36.33 53.66 35.89 53.06 35.27 C 52.35 34.38 51.82 33.36 51.51 32.27 C 50.86 30.39 50.33 28.48 49.91 26.54 C 48.94 26.15 47.93 25.85 46.91 25.63 C 46.03 25.58 45.15 25.63 44.28 25.78 C 43.73 25.81 43.20 25.94 42.71 26.19 C 42.45 26.56 42.15 26.90 41.81 27.19 C 41.47 27.49 41.10 27.75 40.70 27.98 C 40.24 28.19 39.74 28.26 39.24 28.19 C 39.00 28.17 38.76 28.10 38.54 27.99 C 38.34 27.92 38.18 27.76 38.11 27.56 C 38.07 27.44 38.07 27.30 38.11 27.18 L 38.33 26.69 L 35.69 26.69 C 36.09 27.50 36.30 28.39 36.30 29.30 C 36.13 30.11 35.87 30.89 35.54 31.65 C 35.16 32.64 34.72 33.61 34.21 34.54 C 33.53 35.47 32.79 36.37 32.00 37.21 C 31.44 37.83 30.82 38.39 30.13 38.87 C 28.67 39.61 27.13 40.17 25.53 40.53 L 23.00 45.91 C 23.40 46.14 24.53 46.91 24.18 47.57 C 24.06 47.82 23.73 48.44 23.35 49.17 C 22.62 50.57 21.76 52.17 21.60 52.51 L 21.55 52.60 L 0.00 52.60 C 2.16 48.60 4.62 44.38 6.55 40.32 C 6.95 39.49 8.76 39.62 9.25 39.67 C 10.25 38.12 11.08 36.47 11.74 34.74 C 12.18 33.54 12.96 32.49 13.99 31.74 C 13.95 31.54 13.90 31.34 13.83 31.15 C 13.47 30.13 13.23 29.07 13.11 28.00 Z" stroke-linecap="round"/>
</g>
		<g id="e9113296-d51a-4b90-baf4-6dc4c024bf12-child-1">
<path style="stroke: rgb(193,193,193); stroke-width: 0; stroke-dasharray: none; stroke-linecap: butt; stroke-dashoffset: 0; stroke-linejoin: miter; stroke-miterlimit: 4; fill: rgb(26,0,141); fill-rule: nonzero; opacity: 1;" transform="matrix(11.625083 0 0 11.832573 599.999986 600.000003) matrix(1 0 0 1 -15.36968 -11.003972)  translate(-20.76032, -15.295862)" d="M 9.71 13.52 L 8.09 14.22 C 8.09 14.22 6.50 18.46 8.73 22.00 C 10.96 25.54 16.62 24.92 16.62 24.92 C 18.07 23.93 19.24 22.58 20.00 21.00 C 20.95 18.62 20.81 14.29 18.58 12.29 C 16.62 10.68 13.88 10.41 11.65 11.62 C 10.87 12.10 10.22 12.77 9.75 13.56 Z M 29.37 19.73 C 29.37 19.73 30.37 17.73 29.59 13.57 C 29.22 11.06 27.95 8.77 26.00 7.14 C 25.68 6.88 25.32 6.68 24.94 6.53 C 24.94 6.53 25.11 5.82 25.69 5.81 L 32.74 5.63 L 33.98 11.63 L 33.41 11.68 C 33.02 10.69 32.32 9.85 31.41 9.28 C 30.84 8.88 30.19 8.61 29.50 8.48 C 30.90 10.07 31.74 12.08 31.89 14.19 C 32.00 16.11 31.69 18.02 31.00 19.81 L 29.35 19.73 Z" stroke-linecap="round"/>
</g>
		<g id="e9113296-d51a-4b90-baf4-6dc4c024bf12-child-2">
<path style="stroke: rgb(193,193,193); stroke-width: 0; stroke-dasharray: none; stroke-linecap: butt; stroke-dashoffset: 0; stroke-linejoin: miter; stroke-miterlimit: 4; fill: rgb(0,0,0); fill-rule: nonzero; opacity: 1;" transform="matrix(11.625083 0 0 11.832573 599.999986 600.000003) matrix(1 0 0 1 0 0)  translate(-36.13, -26.299834)" d="M 19.69 27.74 L 13.45 28.00 C 13.57 29.04 13.80 30.07 14.15 31.06 C 14.65 32.09 14.46 33.32 13.68 34.16 C 13.95 33.53 14.07 32.85 14.04 32.16 C 13.13 32.83 12.43 33.76 12.04 34.83 C 11.72 36.26 9.04 40.63 8.63 41.30 C 11.33 44.83 14.23 45.97 18.79 46.44 C 19.24 45.73 22.19 41.02 22.05 41.02 C 20.71 40.94 19.36 41.04 18.05 41.33 C 19.30 40.46 20.74 39.90 22.25 39.69 C 23.86 39.44 25.44 39.08 27.00 38.61 C 28.05 38.33 29.06 37.90 30.00 37.35 C 30.78 36.78 31.45 36.08 32.00 35.28 C 32.59 34.54 33.03 33.69 33.30 32.78 C 33.39 32.17 32.68 31.54 32.30 31.27 C 31.07 32.61 29.61 33.72 28.00 34.55 C 29.46 33.32 30.83 31.98 32.10 30.55 C 32.46 29.98 33.10 28.94 33.54 27.99 C 33.84 27.44 34.10 26.85 34.29 26.25 C 34.36 25.13 34.30 24.01 34.11 22.91 C 34.00 23.19 33.91 23.43 33.85 23.60 C 33.46 24.52 32.97 25.40 32.40 26.23 C 31.80 27.20 31.13 28.12 30.40 28.99 C 28.88 30.48 27.03 31.60 25.00 32.25 C 25.00 32.25 29.00 30.11 30.13 28.81 C 30.85 27.95 31.52 27.04 32.13 26.09 C 32.68 25.28 33.15 24.43 33.54 23.53 C 33.65 23.20 33.89 22.61 34.16 21.93 C 34.66 20.82 35.07 19.68 35.38 18.51 C 35.39 18.37 35.33 18.23 35.21 18.14 C 35.10 18.06 34.98 17.99 34.85 17.94 C 34.68 17.89 34.51 17.85 34.34 17.84 C 33.73 17.76 33.12 17.95 32.66 18.36 C 31.94 19.14 31.32 20.01 30.82 20.94 C 30.94 21.27 30.82 21.79 30.44 22.62 C 29.79 23.95 28.97 25.18 28.00 26.29 L 27.82 26.50 C 26.99 27.44 26.10 28.33 25.17 29.16 C 24.47 29.84 23.72 30.45 22.92 31.00 C 21.70 31.49 20.34 31.51 19.11 31.06 C 19.11 31.06 21.78 31.28 22.74 30.73 C 23.51 30.20 24.24 29.60 24.91 28.95 C 25.83 28.12 26.70 27.24 27.53 26.32 L 27.71 26.10 C 28.67 25.01 29.49 23.81 30.14 22.51 C 30.49 21.74 30.60 21.29 30.50 21.04 C 30.40 20.79 30.14 20.77 29.71 20.76 C 29.26 20.74 28.82 20.84 28.43 21.06 C 27.97 21.35 27.58 21.74 27.29 22.20 C 26.92 22.77 26.50 23.32 26.05 23.83 C 25.56 24.37 25.01 24.84 24.41 25.24 C 23.14 26.10 19.77 27.73 19.76 27.74 L 19.69 27.74 Z M 13.11 28.00 L 12.55 28.00 C 9.85 27.96 7.29 26.75 5.55 24.68 C 3.63 22.46 2.60 19.61 2.64 16.68 C 2.60 13.75 3.63 10.90 5.55 8.68 C 7.31 6.60 9.88 5.39 12.60 5.36 C 13.05 5.36 13.50 5.39 13.94 5.46 L 19.28 6.00 C 19.34 5.57 19.49 4.36 19.51 4.08 C 19.53 3.80 19.51 3.38 19.51 3.02 C 19.51 2.14 19.76 1.09 20.75 1.11 C 21.00 1.05 32.45 0.00 33.65 0.00 C 34.56 -0.01 35.42 0.38 36.00 1.08 L 36.25 1.31 C 36.54 1.56 36.81 1.83 37.07 2.11 C 37.49 2.54 37.87 2.96 38.01 3.11 L 38.11 3.11 C 38.78 3.17 42.55 3.20 42.69 3.20 C 43.93 2.99 45.18 2.89 46.43 2.89 C 47.94 2.81 49.45 2.90 50.93 3.16 C 52.17 3.52 53.93 6.16 55.33 8.28 C 55.80 8.98 56.23 9.63 56.60 10.13 C 56.97 10.63 57.24 10.99 57.53 11.36 C 58.55 12.49 59.31 13.82 59.77 15.27 C 59.99 16.13 60.51 17.63 61.08 19.27 C 61.77 21.27 62.54 23.48 62.96 25.07 L 65.74 35.65 C 66.48 35.83 67.20 36.06 67.91 36.34 C 68.47 36.65 72.25 52.34 72.26 52.34 L 72.26 52.54 L 55.77 52.54 L 55.77 52.40 C 55.77 52.40 54.87 45.83 54.06 42.40 C 53.25 38.97 53.69 38.79 54.38 38.49 L 55.55 38.00 L 55.25 36.56 C 54.42 36.33 53.66 35.89 53.06 35.27 C 52.35 34.38 51.82 33.36 51.51 32.27 C 50.86 30.39 50.33 28.48 49.91 26.54 C 48.94 26.15 47.93 25.85 46.91 25.63 C 46.03 25.58 45.15 25.63 44.28 25.78 C 43.73 25.81 43.20 25.94 42.71 26.19 C 42.45 26.56 42.15 26.90 41.81 27.19 C 41.47 27.49 41.10 27.75 40.70 27.98 C 40.24 28.19 39.74 28.26 39.24 28.19 C 39.00 28.17 38.76 28.10 38.54 27.99 C 38.34 27.92 38.18 27.76 38.11 27.56 C 38.07 27.44 38.07 27.30 38.11 27.18 L 38.33 26.69 L 35.69 26.69 C 36.09 27.50 36.30 28.39 36.30 29.30 C 36.13 30.11 35.87 30.89 35.54 31.65 C 35.16 32.64 34.72 33.61 34.21 34.54 C 33.53 35.47 32.79 36.37 32.00 37.21 C 31.44 37.83 30.82 38.39 30.13 38.87 C 28.67 39.62 27.13 40.17 25.53 40.53 L 23.00 45.91 C 23.40 46.14 24.53 46.91 24.18 47.58 L 23.35 49.18 C 22.62 50.57 21.76 52.18 21.60 52.51 L 21.55 52.60 L 0.00 52.60 C 2.16 48.60 4.62 44.38 6.55 40.32 C 6.95 39.49 8.76 39.62 9.25 39.68 C 10.24 38.12 11.08 36.47 11.74 34.75 C 12.17 33.55 12.96 32.50 13.99 31.75 C 13.95 31.55 13.90 31.35 13.83 31.16 C 13.47 30.14 13.23 29.08 13.11 28.00 Z M 37.71 3.27 C 37.55 3.08 37.21 2.71 36.84 2.27 C 36.47 1.83 36.29 1.71 36.03 1.49 L 35.78 1.25 C 35.26 0.61 34.48 0.24 33.66 0.25 C 32.83 0.25 27.04 0.77 23.50 1.08 L 28.50 1.21 L 28.50 1.21 C 29.75 1.53 30.90 2.14 31.87 3.00 L 34.44 5.54 L 36.71 5.14 C 36.89 4.44 37.23 3.78 37.71 3.24 Z M 47.63 14.48 C 48.62 15.00 51.00 16.00 51.30 16.14 C 52.18 16.07 53.42 15.91 53.43 15.91 C 51.43 16.84 49.57 16.51 47.51 16.07 C 46.45 15.72 45.31 15.66 44.22 15.90 C 43.16 16.44 42.16 17.07 41.22 17.80 C 40.07 18.58 38.98 19.47 37.98 20.44 C 37.78 20.93 37.70 21.47 37.76 22.00 C 37.78 22.90 37.89 23.79 38.09 24.66 C 38.22 25.06 38.48 25.41 38.83 25.66 C 39.06 25.19 39.32 24.66 39.56 24.27 C 39.78 23.77 40.13 23.33 40.56 23.00 L 41.00 22.81 C 41.27 22.56 44.30 19.81 45.28 19.67 C 46.26 19.53 48.71 20.85 49.00 21.00 C 49.66 21.02 50.31 21.19 50.89 21.51 C 50.89 21.51 47.01 21.07 46.13 21.13 C 44.54 21.60 42.99 22.19 41.50 22.90 L 40.67 23.25 C 40.33 23.57 40.05 23.95 39.85 24.37 C 39.25 25.42 38.60 26.85 38.40 27.30 C 38.38 27.35 38.38 27.42 38.40 27.47 C 38.45 27.58 38.54 27.67 38.66 27.72 C 39.24 27.97 39.90 27.97 40.48 27.72 C 40.84 27.51 41.17 27.26 41.48 26.98 C 41.80 26.71 42.09 26.40 42.33 26.06 C 42.87 25.71 43.50 25.51 44.14 25.49 C 45.04 25.35 45.95 25.30 46.86 25.34 C 47.96 25.59 49.03 25.92 50.07 26.34 L 50.00 26.49 L 50.17 26.49 C 50.60 28.44 51.13 30.37 51.78 32.26 C 52.09 33.31 52.59 34.29 53.27 35.14 C 53.52 35.40 53.81 35.63 54.12 35.82 C 53.04 34.70 52.47 32.45 52.21 31.01 C 53.87 33.10 54.58 33.52 57.21 32.95 C 59.05 32.55 61.12 32.10 62.11 33.95 C 63.00 35.41 64.20 36.66 65.63 37.60 L 65.81 37.42 C 65.57 36.52 63.34 28.00 62.62 25.25 C 62.20 23.67 61.43 21.46 60.75 19.47 C 60.17 17.82 59.65 16.31 59.42 15.47 C 58.97 14.06 58.23 12.77 57.24 11.67 C 56.94 11.29 56.62 10.88 56.30 10.44 C 55.98 10.00 55.50 9.28 55.03 8.57 C 53.64 6.47 51.94 3.91 50.82 3.57 C 49.37 3.32 47.90 3.24 46.43 3.31 C 45.08 3.27 43.74 3.40 42.43 3.71 C 42.09 3.93 41.24 4.65 40.37 5.38 C 39.50 6.11 38.53 6.93 38.07 7.23 C 37.97 7.29 37.89 7.37 37.84 7.48 C 37.81 7.55 37.81 7.62 37.84 7.69 C 37.92 7.80 38.03 7.89 38.15 7.94 C 38.64 8.17 39.18 8.28 39.72 8.26 C 40.83 8.26 41.94 7.08 42.52 6.47 C 42.79 6.19 42.96 6.00 43.12 6.06 C 44.01 6.30 44.93 6.37 45.85 6.29 C 46.97 6.27 48.09 6.10 49.17 5.79 L 49.43 5.70 L 49.43 5.95 C 49.43 7.02 50.04 7.43 50.80 8.07 C 51.71 8.76 52.53 9.55 53.25 10.43 C 53.60 10.91 53.88 11.44 54.07 12.00 C 55.21 12.37 56.60 12.71 56.60 12.71 C 55.36 12.73 54.12 12.46 53.00 11.93 L 51.86 11.43 C 50.08 10.64 47.15 9.34 46.47 9.36 C 45.26 9.71 44.10 10.20 43.01 10.82 C 41.61 11.51 40.27 12.30 39.00 13.19 C 38.56 13.53 38.26 14.02 38.17 14.56 C 38.10 15.17 38.10 15.78 38.17 16.39 C 38.29 17.66 38.38 19.07 38.41 19.55 C 39.00 19.00 40.00 18.25 41.00 17.55 C 41.46 17.22 41.92 16.89 42.35 16.61 C 41.68 16.85 40.93 16.60 40.55 16.00 C 41.39 16.48 42.44 16.40 43.19 15.78 C 43.90 15.18 44.72 14.73 45.60 14.44 C 46.24 14.19 46.96 14.19 47.60 14.44 Z M 57.94 22.55 C 58.29 23.88 58.81 25.16 59.50 26.35 C 58.42 25.43 57.71 24.16 57.50 22.76 C 57.16 21.24 56.26 21.16 55.00 20.76 C 57.00 21.00 57.62 21.12 57.94 22.55 Z M 59.07 18.39 C 58.93 17.25 56.72 16.58 56.72 16.57 C 57.87 16.72 59.25 17.07 59.42 18.35 C 59.70 19.54 60.13 20.68 60.70 21.76 C 59.80 20.85 59.22 19.66 59.07 18.39 Z M 55.63 36.67 L 56.30 39.92 C 57.73 40.29 59.20 40.45 60.68 40.39 C 60.04 38.56 58.47 37.22 56.57 36.87 C 56.23 36.81 55.92 36.75 55.63 36.67 Z M 25.57 6.00 C 25.45 6.00 25.30 6.28 25.22 6.46 C 27.39 7.81 28.92 9.97 29.50 12.46 C 30.16 14.70 30.22 17.08 29.68 19.36 L 30.77 19.36 C 32.05 15.30 31.12 10.87 28.32 7.67 C 29.26 7.66 30.19 7.91 31.00 8.39 C 31.84 8.90 32.59 9.55 33.21 10.31 L 32.21 5.94 L 25.57 6.00 Z M 24.14 17.52 C 24.14 19.03 28.77 18.32 29.58 18.18 C 29.84 16.29 29.69 14.38 29.16 12.55 C 28.61 10.13 27.11 8.02 25.00 6.72 L 15.63 6.00 C 17.17 6.57 18.55 7.53 19.63 8.77 C 20.51 9.78 21.21 10.94 21.69 12.19 C 21.87 12.44 24.13 15.70 24.17 17.52 Z M 13.84 5.87 L 12.54 5.77 C 9.92 5.82 7.45 7.00 5.76 9.00 C 3.91 11.17 2.91 13.92 2.94 16.77 C 2.91 19.62 3.91 22.38 5.76 24.55 C 7.45 26.55 9.93 27.72 12.55 27.75 L 13.00 27.75 C 15.53 27.57 17.88 26.34 19.46 24.36 C 21.21 22.23 22.15 19.55 22.12 16.79 C 22.16 13.94 21.17 11.17 19.33 9.00 C 17.92 7.35 15.98 6.26 13.84 5.90 Z M 9.35 14.14 C 9.25 14.79 8.66 19.46 11.69 22.02 C 13.62 23.61 16.30 23.96 18.57 22.91 C 19.18 22.12 19.66 21.24 20.00 20.30 C 20.22 19.11 20.27 17.89 20.15 16.69 C 20.08 16.00 19.91 15.32 19.62 14.69 C 19.54 17.21 18.48 18.78 17.07 19.51 C 16.43 19.84 15.72 20.01 15.00 20.00 C 14.26 19.99 13.54 19.83 12.87 19.52 C 10.79 18.50 9.47 16.41 9.43 14.10 L 9.35 14.10 Z M 11.45 22.26 C 8.55 19.80 8.83 15.51 9.00 14.33 L 8.27 14.69 C 8.12 15.32 7.10 20.08 9.93 22.69 C 11.76 24.35 14.26 25.07 16.70 24.64 C 17.23 24.28 17.71 23.86 18.14 23.39 C 15.87 24.22 13.33 23.77 11.47 22.22 Z M 18.33 35.32 C 19.29 35.16 20.22 34.87 21.10 34.45 C 21.51 34.03 21.85 33.55 22.10 33.02 C 22.03 33.65 21.74 34.24 21.29 34.69 C 20.41 35.29 19.33 35.52 18.29 35.32 Z M 24.41 36.46 C 25.41 36.24 25.92 34.31 25.92 34.30 C 25.98 35.34 25.42 36.31 24.49 36.77 C 23.70 37.02 22.96 37.37 22.27 37.83 C 22.77 37.11 23.54 36.61 24.41 36.46 Z M 15.37 16.00 C 15.81 15.78 16.34 15.82 16.75 16.09 C 17.16 16.36 17.40 16.83 17.37 17.32 C 17.66 16.89 17.87 16.42 18.00 15.92 C 18.43 14.77 18.12 13.48 17.21 12.65 C 16.10 11.59 14.50 11.21 13.03 11.65 C 12.60 11.77 12.20 11.98 11.85 12.26 C 11.31 12.69 11.02 13.37 11.10 14.06 C 11.18 14.75 11.61 15.35 12.24 15.64 C 12.75 15.92 13.31 16.07 13.89 16.09 C 14.38 16.14 14.88 16.11 15.37 16.00 Z M 12.55 7.20 C 14.86 7.22 17.06 8.24 18.55 10.01 C 20.16 11.89 21.03 14.28 21.00 16.75 C 21.02 19.22 20.15 21.62 18.54 23.49 C 17.04 25.25 14.85 26.27 12.54 26.30 C 10.23 26.28 8.03 25.26 6.54 23.49 C 4.93 21.62 4.06 19.22 4.08 16.75 C 4.06 14.27 4.95 11.87 6.58 10.00 C 8.07 8.24 10.25 7.22 12.55 7.20 Z" stroke-linecap="round"/>
</g>
</g>
</g>

  </svg>