<svg xmlns="http://www.w3.org/2000/svg" xmlns:xlink="http://www.w3.org/1999/xlink" width="1200px" height="1200px" viewBox="0 0 1200 1200">
  <g id="d37161a6-a349-4080-bb55-0095eb82b0a3">
<g style="">
		<g id="Capa_1">
<path style="stroke: rgb(193,193,193); stroke-width: 0; stroke-dasharray: none; stroke-linecap: butt; stroke-dashoffset: 0; stroke-linejoin: miter; stroke-miterlimit: 4; fill: rgb(0,0,0); fill-rule: nonzero; opacity: 1;" transform="matrix(0.997308 0 0 0.997308 600.00002 600.00002) matrix(1 0 0 1 -26.293625 26.2955)  translate(-193.3675, -245.9565)" d="M 10.00 439.32 C 7.44 439.32 4.88 438.35 2.93 436.39 C -0.98 432.49 -0.98 426.16 2.93 422.25 L 369.66 55.52 C 373.57 51.61 379.90 51.61 383.80 55.52 C 387.71 59.42 387.71 65.76 383.80 69.66 L 17.07 436.39 C 15.12 438.35 12.56 439.32 10.00 439.32 z" stroke-linecap="round"/>
</g>
		<g id="Capa_1">
<path style="stroke: rgb(193,193,193); stroke-width: 0; stroke-dasharray: none; stroke-linecap: butt; stroke-dashoffset: 0; stroke-linejoin: miter; stroke-miterlimit: 4; fill: rgb(255,0,0); fill-rule: nonzero; opacity: 1;" transform="matrix(0.997308 0 0 0.997308 600.00002 600.00002) matrix(1 0 0 1 65.617375 -65.616562)  translate(-285.2785, -154.044437)" d="M 291.93 170.70 C 289.37 170.70 286.81 169.72 284.86 167.77 L 271.55 154.46 C 267.65 150.56 267.65 144.23 271.55 140.32 C 275.46 136.42 281.79 136.41 285.70 140.32 L 299.00 153.63 C 302.91 157.53 302.91 163.86 299.00 167.77 C 297.05 169.72 294.49 170.70 291.93 170.70 z" stroke-linecap="round"/>
</g>
		<g id="Capa_1">
<path style="stroke: rgb(193,193,193); stroke-width: 0; stroke-dasharray: none; stroke-linecap: butt; stroke-dashoffset: 0; stroke-linejoin: miter; stroke-miterlimit: 4; fill: rgb(77,77,77); fill-rule: nonzero; opacity: 1;" transform="matrix(0.997308 0 0 0.997308 600.00002 600.00002) matrix(1 0 0 1 47.995875 -47.994875)  translate(-267.657, -171.666125)" d="M 274.31 188.32 C 271.75 188.32 269.19 187.34 267.24 185.39 L 253.93 172.08 C 250.03 168.18 250.03 161.85 253.93 157.94 C 257.84 154.04 264.17 154.04 268.07 157.94 L 281.38 171.25 C 285.29 175.15 285.29 181.48 281.38 185.39 C 279.43 187.34 276.87 188.32 274.31 188.32 z" stroke-linecap="round"/>
</g>
		<g id="Capa_1">
<path style="stroke: rgb(193,193,193); stroke-width: 0; stroke-dasharray: none; stroke-linecap: butt; stroke-dashoffset: 0; stroke-linejoin: miter; stroke-miterlimit: 4; fill: rgb(255,0,0); fill-rule: nonzero; opacity: 1;" transform="matrix(0.997308 0 0 0.997308 600.00002 600.00002) matrix(1 0 0 1 30.374375 -30.373187)  translate(-250.0355, -189.287812)" d="M 256.69 205.94 C 254.13 205.94 251.57 204.97 249.62 203.01 L 236.31 189.71 C 232.41 185.80 232.41 179.47 236.31 175.56 C 240.22 171.66 246.55 171.66 250.45 175.56 L 263.76 188.87 C 267.67 192.78 267.67 199.11 263.76 203.01 C 261.81 204.97 259.25 205.94 256.69 205.94 z" stroke-linecap="round"/>
</g>
		<g id="Capa_1">
<path style="stroke: rgb(193,193,193); stroke-width: 0; stroke-dasharray: none; stroke-linecap: butt; stroke-dashoffset: 0; stroke-linejoin: miter; stroke-miterlimit: 4; fill: rgb(77,77,77); fill-rule: nonzero; opacity: 1;" transform="matrix(0.997308 0 0 0.997308 600.00002 600.00002) matrix(1 0 0 1 -165.743125 165.744125)  translate(-53.918, -385.405125)" d="M 60.57 402.06 C 58.01 402.06 55.45 401.08 53.50 399.13 L 40.19 385.82 C 36.29 381.92 36.29 375.59 40.19 371.68 C 44.10 367.78 50.43 367.78 54.34 371.68 L 67.64 384.99 C 71.55 388.89 71.55 395.22 67.64 399.13 C 65.69 401.08 63.13 402.06 60.57 402.06 z" stroke-linecap="round"/>
</g>
		<g id="Capa_1">
<path style="stroke: rgb(193,193,193); stroke-width: 0; stroke-dasharray: none; stroke-linecap: butt; stroke-dashoffset: 0; stroke-linejoin: miter; stroke-miterlimit: 4; fill: rgb(255,0,0); fill-rule: nonzero; opacity: 1;" transform="matrix(0.997308 0 0 0.997308 600.00002 600.00002) matrix(1 0 0 1 -183.365125 183.366125)  translate(-36.296, -403.027125)" d="M 42.95 419.68 C 40.39 419.68 37.83 418.70 35.88 416.75 L 22.57 403.44 C 18.67 399.54 18.67 393.21 22.57 389.30 C 26.48 385.40 32.81 385.40 36.71 389.30 L 50.02 402.61 C 53.93 406.51 53.93 412.85 50.02 416.75 C 48.07 418.70 45.51 419.68 42.95 419.68 z" stroke-linecap="round"/>
</g>
		<g id="Capa_1">
<path style="stroke: rgb(193,193,193); stroke-width: 0; stroke-dasharray: none; stroke-linecap: butt; stroke-dashoffset: 0; stroke-linejoin: miter; stroke-miterlimit: 4; fill: rgb(255,0,0); fill-rule: nonzero; opacity: 1;" transform="matrix(0.997308 0 0 0.997308 600.00002 600.00002) matrix(1 0 0 1 143.769875 -75.811)  translate(-363.431, -143.85)" d="M 386.76 165.38 C 386.76 172.58 385.61 179.91 383.20 187.10 C 365.30 181.10 351.54 168.44 343.73 152.78 C 347.18 145.62 348.96 137.75 348.96 129.82 C 348.96 119.76 346.09 109.59 340.10 100.59 L 340.11 100.59 C 368.70 110.17 386.76 136.81 386.76 165.38 z" stroke-linecap="round"/>
</g>
		<g id="Capa_1">
<path style="stroke: rgb(193,193,193); stroke-width: 0; stroke-dasharray: none; stroke-linecap: butt; stroke-dashoffset: 0; stroke-linejoin: miter; stroke-miterlimit: 4; fill: rgb(153,153,153); fill-rule: nonzero; opacity: 1;" transform="matrix(0.997308 0 0 0.997308 600.00002 600.00002) matrix(1 0 0 1 113.082682 -82.431)  translate(-332.743806, -137.23)" d="M 343.73 152.78 C 339.76 161.06 333.58 168.41 325.38 173.87 C 309.21 149.56 315.81 116.77 340.10 100.60 C 346.09 109.60 348.96 119.77 348.96 129.83 C 348.96 137.75 347.18 145.62 343.73 152.78 z" stroke-linecap="round"/>
</g>
		<g id="Capa_1">
<path style="stroke: rgb(193,193,193); stroke-width: 0; stroke-dasharray: none; stroke-linecap: butt; stroke-dashoffset: 0; stroke-linejoin: miter; stroke-miterlimit: 4; fill: rgb(153,153,153); fill-rule: nonzero; opacity: 1;" transform="matrix(0.997308 0 0 0.997308 600.00002 600.00002) matrix(1 0 0 1 188.366875 -181.0175)  translate(-408.028, -38.6435)" d="M 391.44 77.29 L 376.73 62.59 L 439.32 0.00 C 439.32 0.00 423.70 36.98 391.44 77.29 z" stroke-linecap="round"/>
</g>
		<g id="Capa_1">
<path style="stroke: rgb(193,193,193); stroke-width: 0; stroke-dasharray: none; stroke-linecap: butt; stroke-dashoffset: 0; stroke-linejoin: miter; stroke-miterlimit: 4; fill: rgb(102,102,102); fill-rule: nonzero; opacity: 1;" transform="matrix(0.997308 0 0 0.997308 600.00002 600.00002) matrix(1 0 0 1 181.019875 -188.368)  translate(-400.681, -31.293)" d="M 439.32 0.00 L 376.74 62.59 L 362.04 47.89 C 402.35 15.63 439.32 0.00 439.32 0.00 z" stroke-linecap="round"/>
</g>
</g>
</g>

  </svg>